
        <svg xmlns="http://www.w3.org/2000/svg" xmlns:xlink="http://www.w3.org/1999/xlink" version="1.1" width="3153.846153846154" 
        height="1900" viewBox="0 0 3153.846153846154 1900">
			<rect fill="#111111" width="3153.846153846154" height="1900"/>
			<g transform="scale(7.6923076923076925) translate(10, 10)">
				<defs id="SvgjsDefs1498"></defs><g id="SvgjsG1499" featureKey="rootContainer" transform="matrix(1,0,0,1,0,0)" fill="#f6f6f6"><rect xmlns="http://www.w3.org/2000/svg" width="390" height="227" rx="10" ry="10"></rect></g><g id="SvgjsG1500" featureKey="symbolFeature-0" transform="matrix(1.5984843653198473,0,0,1.5984843653198473,115.71691606699594,7.576579012719964)" fill="#111111"><g xmlns="http://www.w3.org/2000/svg"><path d="M50.073,55.658c-1.63-0.042-3.096,1.301-3.156,2.888c-0.062,1.65,1.246,3.08,2.868,3.137   c1.766,0.061,3.104-1.227,3.137-3.019C52.951,57.114,51.608,55.696,50.073,55.658z"></path><path d="M33.373,40.678c1.892-1.738,4.009-3.139,6.354-4.188c0.482-0.216,0.884-0.476,0.826-1.01   c-0.029-0.884-0.737-1.263-1.584-0.879c-4.93,2.231-8.805,5.672-11.595,10.3c-0.741,1.229-1.309,2.566-1.917,3.872   c-0.276,0.595-0.027,1.181,0.509,1.421c0.501,0.225,1.042-0.01,1.337-0.587c0.062-0.122,0.101-0.251,0.152-0.377   C28.821,45.96,30.756,43.081,33.373,40.678z"></path><path d="M41.792,41.019c0.455-0.205,0.825-0.479,0.788-1.053c-0.048-0.74-0.788-1.197-1.471-0.852   c-1.044,0.53-2.1,1.055-3.075,1.696c-3.632,2.386-6.249,5.621-7.888,9.644c-0.226,0.554-0.229,1.068,0.313,1.447   c0.601,0.42,1.229,0.162,1.571-0.664c0.861-2.081,1.991-3.996,3.519-5.66C37.328,43.644,39.392,42.1,41.792,41.019z"></path><path d="M43.766,45.589c0.38-0.181,0.661-0.571,0.857-0.747c0-1-0.767-1.479-1.504-1.157c-1.772,0.772-3.347,1.852-4.72,3.213   c-1.572,1.559-2.805,3.353-3.588,5.426c-0.129,0.342-0.069,0.861,0.112,1.182c0.13,0.227,0.69,0.432,0.916,0.328   c0.362-0.161,0.667-0.549,0.887-0.908c0.658-1.07,1.17-2.241,1.911-3.247C39.969,47.871,41.735,46.559,43.766,45.589z"></path><path d="M77.818,39.915c0.053-6.427,0.128-12.713,0.199-18.579c0.004-0.277,0.286-0.804,0.531-0.986   c2.514-1.881,3.552-4.809,2.711-7.642c-0.864-2.911-3.471-4.895-6.483-4.935c-0.005,0-0.085-0.001-0.089-0.001   c-2.967,0-5.577,1.936-6.496,4.813c-0.934,2.923,0.141,6.009,2.676,7.68c0.369,0.244,0.461,0.374,0.457,0.997   c-0.035,3.738-0.069,7.558-0.102,11.417c-6.217-5.105-13.998-7.801-22.256-7.552C31.052,25.632,16.768,40.1,16.448,58.065   c-0.161,9.095,3.219,17.652,9.517,24.1c6.291,6.438,14.742,10.012,23.796,10.062h0.192c8.992,0,17.426-3.467,23.745-9.76   c6.329-6.305,9.831-14.745,9.858-23.768C83.578,51.92,81.564,45.437,77.818,39.915z M73.311,57.655   c0.048-12.228,0.156-24.673,0.264-36.373c0.007-0.947-0.162-2.031-1.469-2.895c-1.709-1.127-2.404-3.136-1.771-5.116   c0.61-1.913,2.399-3.248,4.411-3.248l0,0c2.023,0.027,3.774,1.363,4.357,3.324c0.565,1.907-0.164,3.899-1.902,5.2   c-0.807,0.604-1.423,1.79-1.434,2.761c-0.133,11.047-0.283,23.565-0.265,35.759c0.007,3.73-1.108,6.559-3.513,8.9   c-0.732,0.715-1.45,1.444-2.17,2.174c-0.361,0.369-0.723,0.736-1.088,1.104c-0.097,0.098-0.202,0.188-0.308,0.281   c-0.524,0.461-1.694,1.489-0.981,3.101c-0.056,0.089-0.121,0.179-0.174,0.231c-1.364,1.324-2.741,2.635-4.119,3.943   c-1.152,1.096-2.303,2.191-3.447,3.295c-0.16,0.154-0.26,0.212-0.303,0.232c-0.04-0.021-0.128-0.08-0.264-0.225   c-1.105-1.174-2.248-2.342-3.222-3.328c-0.239-0.244-0.292-0.391-0.292-0.423c0.002-0.032,0.061-0.182,0.315-0.422   c3.193-3.009,5.754-5.366,7.816-7.196c0.013,0.006,0.028,0.012,0.044,0.018c0.301,0.111,0.727,0.285,1.221,0.254   c0.414,0.064,0.838-0.121,1.082-0.473c0.009-0.012,0.016-0.025,0.025-0.038c0.434-0.416,0.871-0.829,1.309-1.241   c1.143-1.078,2.324-2.192,3.434-3.357C72.479,62.208,73.3,60.108,73.311,57.655z M49.953,88.478h-0.172   c-8.043-0.045-15.549-3.217-21.134-8.934c-5.592-5.723-8.592-13.328-8.449-21.412c0.284-15.957,12.967-28.808,28.875-29.256   c0.295-0.008,0.59-0.013,0.883-0.013c8.008,0,15.514,3.106,21.137,8.747c0.031,0.031,0.059,0.065,0.09,0.096   c-0.051,6.609-0.096,13.305-0.121,19.939c-0.008,1.886-0.603,3.422-1.82,4.699c-1.068,1.123-2.228,2.215-3.348,3.273   c-0.383,0.361-0.766,0.722-1.146,1.085c-0.055-0.019-0.111-0.04-0.16-0.059c-0.264-0.099-0.592-0.222-0.977-0.222   c-0.417,0-0.804,0.146-1.117,0.424c-2.118,1.875-4.768,4.31-8.096,7.447c-0.666,0.627-1.01,1.307-1.021,2.02   c-0.014,0.711,0.303,1.398,0.939,2.043c0.963,0.977,2.094,2.133,3.183,3.291c0.587,0.623,1.226,0.939,1.899,0.939   c0.65,0,1.264-0.285,1.869-0.871c1.141-1.1,2.287-2.191,3.436-3.282c1.383-1.315,2.768-2.632,4.135-3.962   c0.016-0.014,1.455-1.461,0.752-2.594c-0.085-0.139-0.108-0.217-0.119-0.223c0.055-0.1,0.286-0.303,0.441-0.439   c0.144-0.127,0.287-0.253,0.418-0.385c0.367-0.369,0.732-0.74,1.097-1.111c0.708-0.719,1.415-1.438,2.136-2.141   c2.828-2.756,4.199-6.195,4.192-10.516c-0.005-3.066,0.001-6.153,0.015-9.233c1.34,3.423,2.051,7.087,2.039,10.858   C79.754,75.393,66.641,88.478,49.953,88.478z"></path><path d="M60.738,59.89c0.304-2.977-0.553-5.842-2.414-8.066c-1.926-2.305-4.715-3.707-7.855-3.949   c-5.527-0.451-10.632,4.189-11.199,9.926c-0.278,2.815,0.838,5.988,2.915,8.281c1.969,2.172,4.638,3.369,7.516,3.369   c0,0,0,0,0.001,0c0.116,0,0.231-0.002,0.349-0.006c0.156,0.008,0.312,0.012,0.468,0.012C55.704,69.456,60.193,65.253,60.738,59.89z    M50.121,67.195l-0.051-0.003l-0.051,0.002c-0.107,0.004-0.213,0.006-0.319,0.006c-2.865,0-4.761-1.43-5.848-2.63   c-1.639-1.808-2.559-4.38-2.344-6.55c0.451-4.559,4.447-8.24,8.788-7.904c2.531,0.195,4.769,1.314,6.302,3.148   c1.468,1.758,2.145,4.029,1.902,6.396C58.057,64.03,54.32,67.425,50.121,67.195z"></path></g></g><g id="SvgjsG1501" featureKey="nameFeature-0" transform="matrix(1.0859777179885701,0,0,1.0859777179885701,18.925133263310467,162.66329453215977)" fill="#111111"><path d="M1.4 40.08 c-0.4 0.04 -0.56 -1.36 -0.24 -1.44 c2.32 -0.6 4.12 -0.96 4.12 -3.92 l0 -17.76 c0 -2.56 -1.64 -3.24 -3.36 -3.68 c-0.32 -0.08 -0.12 -1.4 0.2 -1.36 c1.64 0.2 3.32 0.24 5 0.24 c3.12 0 5.92 -0.24 7.96 -0.24 c9.68 0 14.92 5.76 14.92 13.48 c0 7.68 -5.24 14.68 -14.96 14.68 c-1.92 0 -4.4 -0.24 -7.36 -0.24 c-2.48 0 -4.44 0.04 -6.28 0.24 z M15.44 37.96 c6.52 0 9.76 -3.52 9.76 -10.28 c0 -7.64 -4.16 -13.64 -11.36 -13.64 c-2.84 0 -3.76 0.88 -3.76 2.92 l0 17.76 c0 2.16 1.48 3.24 5.36 3.24 z M63.84 38.64 c0.32 0.04 0.08 1.36 -0.24 1.36 l-10.96 0 c-0.32 0 -0.56 -1.32 -0.24 -1.36 c2.04 -0.28 3.32 -1.08 3.32 -3.6 l0 -6.88 c-0.2 -0.68 -1.04 -0.68 -1.8 -0.68 l-10.24 0 c-0.76 0 -1.6 0 -1.8 0.68 l0 6.88 c0 2.8 1.6 3.36 3.32 3.6 c0.32 0.04 0.08 1.36 -0.24 1.36 l-10.96 0 c-0.32 0 -0.56 -1.32 -0.24 -1.36 c2.04 -0.28 3.32 -1.08 3.32 -3.6 l0 -18.08 c0 -2.52 -1.28 -3.32 -3.32 -3.6 c-0.32 -0.04 -0.08 -1.36 0.24 -1.36 l10.96 0 c0.32 0 0.56 1.32 0.24 1.36 c-1.72 0.24 -3.32 0.8 -3.32 3.6 l0 7.32 c0.2 0.68 1.04 0.68 1.8 0.68 l10.24 0 c0.76 0 1.6 0 1.8 -0.68 l0 -7.32 c0 -2.52 -1.28 -3.32 -3.32 -3.6 c-0.32 -0.04 -0.08 -1.36 0.24 -1.36 l10.96 0 c0.32 0 0.56 1.32 0.24 1.36 c-1.72 0.24 -3.32 0.8 -3.32 3.6 l0 18.08 c0 2.8 1.6 3.36 3.32 3.6 z M94.36 12 c0.48 0 0.6 1.28 0.12 1.36 c-1.56 0.24 -2.92 1.36 -4.76 4.24 l-6.4 10 l0 7.44 c0 2.8 1.6 3.28 4.08 3.6 c0.28 0.04 0.08 1.36 -0.24 1.36 l-12.52 0 c-0.32 0 -0.52 -1.32 -0.24 -1.36 c2.64 -0.36 4.12 -0.88 4.12 -3.6 l0 -7.28 l-6.72 -10.12 c-1.84 -2.76 -2.96 -4 -4.68 -4.28 c-0.52 -0.08 -0.4 -1.36 0.12 -1.36 l10.56 0 c0.52 0 0.6 1.28 0.12 1.36 c-1.76 0.28 -2.44 1.64 -0.72 4.24 l5.08 7.56 l4.88 -7.56 c1.68 -2.6 0.68 -3.92 -1.44 -4.24 c-0.56 -0.08 -0.4 -1.36 0.08 -1.36 l8.56 0 z M97.4 40.08 c-0.4 0.04 -0.56 -1.36 -0.24 -1.44 c2.32 -0.6 4.12 -0.96 4.12 -3.92 l0 -17.76 c0 -2.56 -1.64 -3.24 -3.36 -3.68 c-0.32 -0.08 -0.12 -1.4 0.2 -1.36 c2.92 0.32 7.96 0.24 10.4 0.24 c3.64 0 6.28 -0.16 9.56 -0.24 c0.96 0 0.96 0.64 0.76 1.56 l-0.96 3.8 c-0.12 0.56 -1.12 0.56 -1.28 0 c-0.6 -1.96 -1.8 -3.08 -6.8 -3.08 c-2.8 0 -3.72 0.72 -3.72 2.8 l0 6.52 c0 1.04 0.52 1.24 1.32 1.24 l0.88 0 c3.24 0 6.04 -0.32 7.68 -1.8 c0.4 -0.36 1.28 -0.28 0.92 0.52 l-2.28 5.04 c-0.32 0.72 -0.92 0.64 -1.36 0.04 c-0.92 -1.28 -2.96 -1.8 -5.28 -1.8 l-0.56 0 c-0.8 0 -1.32 0.2 -1.32 1.24 l0 6.72 c0 2.28 0.96 3.12 4.28 3.12 c6.04 0 8.44 -2.76 9.4 -4.28 c0.28 -0.44 1.36 -0.24 1.36 0.44 c0 2.04 -1.72 6.08 -4.24 6.08 c-2.24 -0.12 -4.44 -0.24 -7.8 -0.24 c-3.68 0 -8.04 -0.12 -11.68 0.24 z M151.48 12 c0.48 0 0.6 1.28 0.12 1.36 c-1.56 0.24 -2.92 1.36 -4.76 4.24 l-6.4 10 l0 7.44 c0 2.8 1.6 3.28 4.08 3.6 c0.28 0.04 0.08 1.36 -0.24 1.36 l-12.52 0 c-0.32 0 -0.52 -1.32 -0.24 -1.36 c2.64 -0.36 4.12 -0.88 4.12 -3.6 l0 -7.28 l-6.72 -10.12 c-1.84 -2.76 -2.96 -4 -4.68 -4.28 c-0.52 -0.08 -0.4 -1.36 0.12 -1.36 l10.56 0 c0.52 0 0.6 1.28 0.12 1.36 c-1.76 0.28 -2.44 1.64 -0.72 4.24 l5.08 7.56 l4.88 -7.56 c1.68 -2.6 0.68 -3.92 -1.44 -4.24 c-0.56 -0.08 -0.4 -1.36 0.08 -1.36 l8.56 0 z M171.16000000000003 40.64 c-3.28 0 -8.28 -1.44 -7.8 -3.2 l0.4 -1.48 c1.12 -4.2 2.44 1.96 9.04 1.96 c3.36 0 5 -1.64 5 -3.96 c0 -1.88 -1.2 -2.68 -4.04 -4.44 l-3.88 -2.44 c-4.32 -2.72 -6.08 -4.4 -6.08 -7.4 c0 -4.92 4.8 -8.32 9.76 -8.32 c3.04 0 6.92 1.32 6.48 2.68 l-0.48 1.52 c-1.24 3.88 -2.24 -1.48 -7.72 -1.48 c-2.84 0 -4.32 1.44 -4.32 3.56 c0 1.8 1.08 2.8 3.76 4.44 l4.2 2.6 c4.24 2.64 5.96 4.44 5.96 7.32 c0 5 -4.92 8.64 -10.28 8.64 z M191.00000000000003 40 c-0.36 0 -0.6 -1.28 -0.28 -1.32 c2.76 -0.36 4.6 -0.92 4.6 -3.08 l0 -19.72 c0 -1 -0.36 -1.32 -1.32 -1.32 l-1.08 0 c-3.8 0 -5.92 0.88 -6.72 2.6 c-0.36 0.8 -1.72 0.68 -1.56 0 c0.36 -1.44 0.68 -2.68 0.92 -4.8 c0.08 -0.76 0.52 -0.72 1.24 -0.64 c1.84 0.2 3.52 0.28 11.12 0.28 s10.28 -0.08 12.2 -0.28 c0.72 -0.08 1.4 -0.12 1.16 0.64 c-0.6 1.88 -1 3.36 -1.24 4.8 c-0.12 0.68 -1.2 0.72 -1.36 0 c-0.4 -1.68 -2.16 -2.6 -5.6 -2.6 l-1.24 0 c-0.96 0 -1.56 0.32 -1.56 1.32 l0 19.72 c0 2.16 1.84 2.72 4.6 3.08 c0.32 0.04 0.08 1.32 -0.28 1.32 l-13.6 0 z M229.28000000000003 40.64 c-5.64 0 -11.96 -3 -11.96 -11.12 l0 -12.56 c0 -2.52 -1.28 -3.36 -3.24 -3.6 c-0.32 -0.04 -0.08 -1.36 0.24 -1.36 l10.92 0 c0.32 0 0.56 1.32 0.24 1.36 c-1.6 0.2 -3.2 0.8 -3.2 3.6 l0 12.76 c0 5.6 3.24 8.2 7.48 8.2 c4.36 0 7.84 -2.6 7.84 -8.2 l0 -12.76 c0 -2.6 -1.48 -3.32 -3.44 -3.6 c-0.28 -0.04 -0.08 -1.36 0.24 -1.36 l9 0 c0.28 0 0.52 1.32 0.2 1.36 c-1.6 0.2 -3.2 0.8 -3.2 3.6 l0 12.52 c0 7.36 -4.76 11.16 -11.12 11.16 z M246.56000000000003 40.08 c-0.4 0.04 -0.56 -1.36 -0.24 -1.44 c2.32 -0.6 4.12 -0.96 4.12 -3.92 l0 -17.76 c0 -2.56 -1.64 -3.24 -3.36 -3.68 c-0.32 -0.08 -0.12 -1.4 0.2 -1.36 c1.64 0.2 3.32 0.24 5 0.24 c3.12 0 5.92 -0.24 7.96 -0.24 c9.68 0 14.92 5.76 14.92 13.48 c0 7.68 -5.24 14.68 -14.96 14.68 c-1.92 0 -4.4 -0.24 -7.36 -0.24 c-2.48 0 -4.44 0.04 -6.28 0.24 z M260.6 37.96 c6.52 0 9.76 -3.52 9.76 -10.28 c0 -7.64 -4.16 -13.64 -11.36 -13.64 c-2.84 0 -3.76 0.88 -3.76 2.92 l0 17.76 c0 2.16 1.48 3.24 5.36 3.24 z M279.16 40 c-0.32 0 -0.56 -1.32 -0.24 -1.36 c2.04 -0.28 3.32 -1.08 3.32 -3.6 l0 -18.08 c0 -2.52 -1.28 -3.32 -3.32 -3.6 c-0.32 -0.04 -0.08 -1.36 0.24 -1.36 l10.96 0 c0.32 0 0.56 1.32 0.24 1.36 c-1.72 0.24 -3.32 0.8 -3.32 3.6 l0 18.08 c0 2.8 1.6 3.36 3.32 3.6 c0.32 0.04 0.08 1.36 -0.24 1.36 l-10.96 0 z M308.76 40.64 c-8.32 0 -14.44 -6.16 -14.44 -14.48 c0 -8.08 5.76 -14.8 14.52 -14.8 c8.36 0 14.44 6.12 14.44 14.44 c0 8.12 -5.72 14.84 -14.52 14.84 z M310.32 37.92 c3.52 0 8.2 -2.32 8.2 -9.88 c0 -8.08 -5.48 -13.96 -11.24 -13.96 c-3.52 0 -8.16 2.32 -8.16 9.84 c0 8.16 5.48 14 11.2 14 z"></path></g>
			</g>
		</svg>
	